{"title":"In Their Room: London/Berlin/San Francisco (2013) DVD RIP Gay In","uid":11687243,"size":1689450459,"categoryP":"video","categoryS":"movies","magnet":"?xt=urn:btih:76fcf60c862ad132376eafa0b7bd3fb10b071fae&amp;dn=In+Their+Room%3A+London%2FBerlin%2FSan+Francisco+%282013%29+DVD+RIP+Gay+In&amp;tr=udp%3A%2F%2Ftracker.openbittorrent.com%3A80&amp;tr=udp%3A%2F%2Fopen.demonii.com%3A1337&amp;tr=udp%3A%2F%2Ftracker.coppersurfer.tk%3A6969&amp;tr=udp%3A%2F%2Fexodus.desync.com%3A6969","seeders":8,"leechers":1,"uploader":"jmanwf","files":5,"time":1423367762,"description":"Storyline\n\nIn Their Room (2009-present) is an on-going multi-city documentary series about gay men, bedrooms and intimacy. The series veers into the bedrooms of men where you see them doing everything from the most banal to the sometimes more erotic. Complimenting the revealing nature of their everyday activities are confessional interviews about fantasies, turn-ons and vulnerabilities. The throughline of the series highlights the ways in which gay men in disparate cultures deal with connection, intimacy and loneliness in the modern world. In an age of accelerated gay acceptance and visibility, it's shocking that many of these stories are being left undocumented. My inspiration for the series came largely out of such a frustration. If representations of my life -and that of my friends- were largely going unseen in the media I reasoned that I should be recording these stories before they were lost or forgotten. I do this as best I can focusing on what feels authentic, modern and uncensored. \n\n\n\n\nFormat : MPEG-4\nFormat profile : Base Media / Version 2\nCodec ID : mp42\nFile size : 381 MiB\nDuration : 34mn 7s\nOverall bit rate mode : Variable\nOverall bit rate : 1 560 Kbps\nWriting application : HandBrake 0.10.0 2014112200\n\nVideo\nID : 1\nFormat : AVC\nFormat/Info : Advanced Video Codec\nFormat profile : &lt;a class=&quot;__cf_email__&quot; href=&quot;/cdn-cgi/l/email-protection&quot; data-cfemail=&quot;80c8e9e7e8c0ccb4aeb1&quot;&gt;[email&amp;#160;protected]&lt;/a&gt;&lt;script cf-hash='f9e31' type=&quot;text/javascript&quot;&gt;\n/* &lt;![CDATA[ */!function(){try{var t=&quot;currentScript&quot;in document?document.currentScript:function(){for(var t=document.getElementsByTagName(&quot;script&quot;),e=t.length;e--;)if(t[e].getAttribute(&quot;cf-hash&quot;))return t[e]}();if(t&amp;&amp;t.previousSibling){var e,r,n,i,c=t.previousSibling,a=c.getAttribute(&quot;data-cfemail&quot;);if(a){for(e=&quot;&quot;,r=parseInt(a.substr(0,2),16),n=2;a.length-n;n+=2)i=parseInt(a.substr(n,2),16)^r,e+=String.fromCharCode(i);e=document.createTextNode(e),c.parentNode.replaceChild(e,c)}}}catch(u){}}();/* ]]&gt; */&lt;/script&gt;\nFormat settings, CABAC : Yes\nFormat settings, ReFrames : 4 frames\nCodec ID : avc1\nCodec ID/Info : Advanced Video Coding\nDuration : 34mn 7s\nBit rate : 1 392 Kbps\nWidth : 720 pixels\nHeight : 480 pixels\nDisplay aspect ratio : 16:9\nOriginal display aspect ratio : 16:9\nFrame rate mode : Variable\nFrame rate : 23.976 fps\nMinimum frame rate : 19.978 fps\nMaximum frame rate : 29.970 fps\nStandard : NTSC\nColor space : YUV\nChroma subsampling : 4:2:0\nBit depth : 8 bits\nScan type : Progressive\nBits/(Pixel*Frame) : 0.168\nStream size : 340 MiB (89%)\n\nAudio\nID : 2\nFormat : AAC\nFormat/Info : Advanced Audio Codec\nFormat profile : LC\nCodec ID : 40\nDuration : 34mn 6s\nBit rate mode : Variable\nBit rate : 160 Kbps\nChannel(s) : 2 channels\nChannel positions : Front: L R\nSampling rate : 48.0 KHz\nCompression mode : Lossy\nStream size : 39.1 MiB (10%)\nTitle : Stereo / Stereo\nLanguage : English","torrent":{"xt":"urn:btih:76fcf60c862ad132376eafa0b7bd3fb10b071fae","amp;dn":"In+Their+Room%3A+London%2FBerlin%2FSan+Francisco+%282013%29+DVD+RIP+Gay+In","amp;tr":["udp%3A%2F%2Ftracker.openbittorrent.com%3A80","udp%3A%2F%2Fopen.demonii.com%3A1337","udp%3A%2F%2Ftracker.coppersurfer.tk%3A6969","udp%3A%2F%2Fexodus.desync.com%3A6969"],"infoHash":"76fcf60c862ad132376eafa0b7bd3fb10b071fae","infoHashBuffer":{"type":"Buffer","data":[118,252,246,12,134,42,209,50,55,110,175,160,183,189,63,177,11,7,31,174]},"announce":[],"urlList":[]}}